# xmcd CD database file
#
# Track frame offsets:
#	150
#	13316
#	25159
#	38764
#	53323
#	69401
#	83877
#	98973
#	121996
#	134069
#	147841
#	160589
#	175009
#	190070
#	203466
#	216772
#
# Disc length: 3167 seconds
#
# Revision: 0
# Processed by: cddbd v1.5.1PL0 Copyright (c) Steve Scherf et al.
# Submitted via: CDex 1.51
#
DISCID=d10c5d10
DTITLE=Duke Ellington - The Age Of Ellington [CD1]
DYEAR=1974
DGENRE=Jazz
TTITLE0=Take the 'A' Train (1941)
TTITLE1=I Got It Bad ANd Taht Ain't Good
TTITLE2=Sophisticated Lady
TTITLE3=Perdido
TTITLE4=Solitude
TTITLE5=Cottontail
TTITLE6=Concerto For Cootie
TTITLE7=Mood Indigo
TTITLE8=C Jam Blues
TTITLE9=Prelude To A Kiss
TTITLE10=Caravan
TTITLE11=Things Ain't What They Used To Be
TTITLE12=Don't Get Around Much Any More
TTITLE13=Jump For Joy
TTITLE14=Chelsea Bridge
TTITLE15=Take The 'A' Train (1967)
EXTD=YEAR: 1974
EXTT0=
EXTT1=
EXTT2=
EXTT3=
EXTT4=
EXTT5=
EXTT6=
EXTT7=
EXTT8=
EXTT9=
EXTT10=
EXTT11=
EXTT12=
EXTT13=
EXTT14=
EXTT15=
PLAYORDER=
